#!OML:ASF F:\VICON\USERDATA\INSTALL\rory3\rory3.ASF
:FULLY-SPECIFIED
:DEGREES
17
root 0.630098 18.4519 -21.8764 5.19487 -4.6026 2.81481
lowerback 15.2047 -3.02971 -3.28115
upperback 1.13222 -4.57224 -0.113625
thorax -7.05862 -2.12192 2.68017
lowerneck -5.19235 1.81324 -1.97206
upperneck -9.97018 2.39596 -0.883849
head -2.26558 1.26971 0.0418514
rclavicle -3.4514e-014 -1.27222e-014
rhumerus -50.7761 3.01578 -79.3462
rradius 77.9651
rwrist -7.37823
rhand -33.184 30.0989
rfingers 7.12502
rthumb -6.39187 0.215338
lclavicle -3.4514e-014 -1.27222e-014
lhumerus -31.4286 -25.1214 92.9477
lradius 110.146
lwrist 29.0827
lhand -32.7383 6.68203
lfingers 7.12502
lthumb -5.96151 36.5782
rfemur -28.1942 6.0127 18.5838
rtibia 12.4307
rfoot 6.72484 -9.98684
rtoes -13.0881
lfemur 17.2288 1.31735 -29.3178
ltibia 60.9671
lfoot 37.0196 4.30139
ltoes -8.14831
18
root 0.627649 18.3415 -21.3343 4.87621 -4.88198 2.13152
lowerback 15.2467 -3.00502 -2.72277
upperback 1.24286 -4.41624 0.25323
thorax -6.98493 -2.0613 2.72368
lowerneck -5.17979 1.9529 -2.37501
upperneck -9.67299 2.59993 -0.881101
head -2.17776 1.38289 0.11091
rclavicle 5.07149e-014 3.37934e-015
rhumerus -49.0654 3.63316 -79.2519
rradius 78.3353
rwrist -7.44754
rhand -33.2035 30.2041
rfingers 7.12502
rthumb -6.41069 0.321072
lclavicle 5.07149e-014 3.37934e-015
lhumerus -32.5463 -24.8899 93.6101
lradius 108.871
lwrist 29.6065
lhand -32.7719 7.23286
lfingers 7.12502
lthumb -5.99404 37.1281
rfemur -26.9556 5.19677 20.1942
rtibia 13.169
rfoot 7.87403 -7.94811
rtoes -9.82042
lfemur 15.7555 2.74558 -27.6195
ltibia 66.6108
lfoot 35.9255 4.62448
ltoes -8.47856
19
root 0.617733 18.2196 -20.7967 4.51741 -5.28552 1.62501
lowerback 15.4044 -2.95779 -2.467
upperback 1.26723 -4.29012 0.574533
thorax -7.04703 -2.00181 2.90553
lowerneck -4.97258 2.10984 -2.84522
upperneck -9.12607 2.83056 -0.83198
head -2.04548 1.50786 0.205173
rclavicle -9.78238e-015 5.14977e-015
rhumerus -47.4828 4.53433 -79.3228
rradius 78.9849
rwrist -7.40854
rhand -32.5975 30.4555
rfingers 7.12502
rthumb -5.82558 0.555557
lclavicle -9.78238e-015 5.14977e-015
lhumerus -33.8724 -24.5299 94.279
lradius 107.538
lwrist 29.3396
lhand -32.7386 7.79562
lfingers 7.12502
lthumb -5.96183 37.6917
rfemur -26.3532 4.48171 21.6258
rtibia 15.4484
rfoot 8.04071 -4.28782
rtoes -3.78659
lfemur 14.2777 4.32824 -25.8925
ltibia 72.1352
lfoot 34.585 4.75389
ltoes -7.7784
20
root 0.611113 18.1014 -20.2679 4.01292 -5.93161 1.40162
lowerback 15.8398 -2.78259 -2.51431
upperback 1.31176 -4.05946 0.798284
thorax -7.23439 -1.88021 3.14973
lowerneck -4.54328 2.20126 -3.263
upperneck -8.94294 2.95409 -0.812146
head -2.06965 1.58156 0.276917
rclavicle 1.02126e-014 1.82882e-014
rhumerus -45.7266 5.52814 -79.3586
rradius 79.6705
rwrist -7.40275
rhand -32.6122 30.5086
rfingers 7.12502
rthumb -5.83983 0.609031
lclavicle 1.02126e-014 1.82882e-014
lhumerus -35.1006 -23.9913 94.8594
lradius 106.198
lwrist 28.7414
lhand -32.6582 8.33801
lfingers 7.12502
lthumb -5.88419 38.2363
rfemur -26.1137 3.91108 22.6602
rtibia 18.8071
rfoot 5.21616 0.533979
rtoes 2.49302
lfemur 12.8669 6.09884 -24.423
ltibia 77.4566
lfoot 33.7678 5.10439
ltoes -7.26325
21
root 0.604869 17.9832 -19.7462 3.42217 -6.44986 1.40374
lowerback 16.4794 -2.57046 -2.74052
upperback 1.37378 -3.82291 0.942626
thorax -7.51199 -1.74845 3.41952
lowerneck -4.29079 2.26645 -3.60422
upperneck -8.84487 3.0442 -0.771458
head -2.09038 1.63596 0.343975
rclavicle 2.00276e-014 1.38155e-014
rhumerus -43.8318 6.37958 -79.3061
rradius 80.3731
rwrist -7.51764
rhand -32.4323 30.327
rfingers 7.12502
rthumb -5.66614 0.422732
lclavicle 2.00276e-014 1.38155e-014
lhumerus -36.1848 -23.4723 95.4047
lradius 104.879
lwrist 28.3753
lhand -32.8586 8.03609
lfingers 7.12502
lthumb -6.07775 37.9289
rfemur -25.9381 3.16098 23.441
rtibia 22.8204
rfoot 2.20279 3.98162
rtoes 7.38765
lfemur 11.4262 7.6748 -23.1659
ltibia 82.5584
lfoot 33.168 5.02299
ltoes -6.72659
22
root 0.597606 17.8481 -19.2363 2.99427 -6.95121 1.42296
lowerback 17.0709 -2.37875 -2.9436
upperback 1.33993 -3.6154 1.04138
thorax -7.87173 -1.62809 3.63258
lowerneck -3.95165 2.40419 -3.79221
upperneck -8.77324 3.21992 -0.77318
head -2.13282 1.72969 0.370035
rclavicle 2.46493e-014 -3.37934e-014
rhumerus -41.9274 7.18562 -79.3329
rradius 81.1791
rwrist -7.58938
rhand -31.9778 30.278
rfingers 7.12502
rthumb -5.22732 0.362516
lclavicle 2.46493e-014 -3.37934e-014
lhumerus -37.2712 -22.7767 95.7882
lradius 103.706
lwrist 28.4365
lhand -32.6951 7.83209
lfingers 7.12502
lthumb -5.91988 37.7294
rfemur -25.9673 3.53565 23.8094
rtibia 27.2347
rfoot -1.39565 2.29519
rtoes 8.75255
lfemur 9.72599 9.14867 -21.9146
ltibia 87.5409
lfoot 32.3049 5.03246
ltoes -5.34216
23
root 0.592079 17.7414 -18.7248 2.73518 -7.44104 1.39814
lowerback 17.5962 -2.26352 -3.11362
upperback 1.24386 -3.49888 1.19475
thorax -8.25592 -1.5494 3.90364
lowerneck -3.42289 2.62846 -4.09213
upperneck -9.0335 3.49759 -0.758961
head -2.32389 1.88255 0.413459
rclavicle -2.8625e-014 -6.36111e-015
rhumerus -39.8678 8.33871 -79.3743
rradius 81.9904
rwrist -7.35346
rhand -31.8832 29.9285
rfingers 7.12502
rthumb -5.13597 0.0106969
lclavicle -2.8625e-014 -6.36111e-015
lhumerus -38.493 -21.7079 96.1353
lradius 102.793
lwrist 28.8519
lhand -32.6989 7.39189
lfingers 7.12502
lthumb -5.9235 37.2891
rfemur -26.2017 4.75393 24.0307
rtibia 31.4346
rfoot -4.31259 0.099877
rtoes 8.06404
lfemur 7.97748 10.5637 -20.5667
ltibia 92.1524
lfoot 31.6705 5.79025
ltoes -0.964796
24
root 0.580768 17.652 -18.2296 2.51542 -8.00904 0.801392
lowerback 18.1925 -2.05506 -2.77797
upperback 1.38168 -3.14876 1.4399
thorax -8.46831 -1.38365 3.92507
lowerneck -3.29437 2.7157 -4.0383
upperneck -9.48452 3.58337 -0.987859
head -2.492 1.93592 0.325245
rclavicle -2.32578e-014 -3.18055e-015
rhumerus -37.2408 9.04641 -79.4248
rradius 82.7002
rwrist -6.87403
rhand -31.9925 29.7038
rfingers 7.12502
rthumb -5.24147 -0.211392
lclavicle -2.32578e-014 -3.18055e-015
lhumerus -39.2466 -21.1809 96.4179
lradius 101.771
lwrist 27.9582
lhand -32.9519 7.42619
lfingers 7.12502
lthumb -6.16777 37.3164
rfemur -26.4085 6.24923 24.8728
rtibia 34.9866
rfoot -6.27761 -2.17724
rtoes 6.75284
lfemur 6.18485 12.1041 -18.1928
ltibia 96.6493
lfoot 30.8515 6.11365
ltoes 4.12575
25
root 0.567281 17.5916 -17.7477 2.37497 -8.78238 -0.593311
lowerback 18.8319 -1.70632 -1.64382
upperback 1.83718 -2.43571 1.7756
thorax -8.41311 -1.08319 3.48448
lowerneck -3.89422 2.6749 -3.49755
upperneck -10.0213 3.50116 -1.48396
head -2.53993 1.89406 0.0816054
rclavicle -1.95306e-014 -2.5842e-014
rhumerus -33.9266 9.0821 -79.4795
rradius 83.3004
rwrist -6.51479
rhand -31.8858 29.6876
rfingers 7.12502
rthumb -5.13846 -0.230145
lclavicle -1.95306e-014 -2.5842e-014
lhumerus -39.4178 -21.2204 96.5444
lradius 100.835
lwrist 26.2257
lhand -33.0181 8.49572
lfingers 7.12502
lthumb -6.23167 38.3841
rfemur -26.2351 7.18472 26.7735
rtibia 37.6974
rfoot -7.79184 -3.98143
rtoes 1.82569
lfemur 4.28892 13.9012 -14.5705
ltibia 100.925
lfoot 30.3484 4.07941
ltoes 3.75698
26
root 0.571012 17.4615 -17.2793 2.75889 -9.21673 -2.70574
lowerback 18.7896 -1.63495 0.494836
upperback 2.35556 -1.87054 2.23249
thorax -7.91662 -0.887921 2.60062
lowerneck -4.78863 2.76511 -2.82963
upperneck -10.5558 3.58637 -2.08228
head -2.53414 1.9301 -0.212667
rclavicle -1.51573e-014 -4.96962e-015
rhumerus -30.5164 9.18315 -79.5817
rradius 84.0646
rwrist -6.06529
rhand -31.621 29.4803
rfingers 7.12502
rthumb -4.88276 -0.4434
lclavicle -1.51573e-014 -4.96962e-015
lhumerus -39.5994 -20.8675 96.5403
lradius 100.307
lwrist 25.4743
lhand -33.1515 8.54232
lfingers 7.12502
lthumb -6.3605 38.4268
rfemur -24.7989 8.08189 28.9144
rtibia 39.506
rfoot -10.5994 -4.65211
rtoes 3.97405
lfemur 1.71126 15.2731 -10.4863
ltibia 105.339
lfoot 30.3852 0.185396
ltoes 4.80236
27
root 0.577306 17.3774 -16.7724 3.73999 -9.41827 -4.56628
lowerback 17.8316 -1.68074 2.57125
upperback 2.65011 -1.53227 2.6106
thorax -7.13293 -0.783936 1.70171
lowerneck -5.76111 2.89631 -2.29473
upperneck -10.6698 3.73809 -2.58593
head -2.38061 1.99296 -0.446405
rclavicle -4.77083e-015 -1.03368e-014
rhumerus -27.5136 9.62498 -79.6457
rradius 84.9978
rwrist -5.64344
rhand -31.9712 29.2948
rfingers 7.12502
rthumb -5.22093 -0.620899
lclavicle -4.77083e-015 -1.03368e-014
lhumerus -40.1413 -20.0844 96.5398
lradius 99.9913
lwrist 25.4357
lhand -33.2597 9.0453
lfingers 7.12502
lthumb -6.46492 38.9266
rfemur -23.8718 8.28867 30.6818
rtibia 40.5425
rfoot -12.8085 -4.32651
rtoes 5.68144
lfemur -1.67654 16.4962 -7.3099
ltibia 109.097
lfoot 31.0177 -3.94931
ltoes 12.4076
28
root 0.570266 17.3276 -16.299 3.43084 -8.53844 -4.99056
lowerback 18.4873 -1.99714 3.14618
upperback 2.89933 -1.80133 2.75527
thorax -7.22943 -0.925648 1.61373
lowerneck -6.23075 2.90911 -2.14581
upperneck -10.9352 3.74094 -2.78494
head -2.38074 1.9933 -0.529492
rclavicle -2.98177e-016 1.80894e-014
rhumerus -24.8937 10.2106 -79.6722
rradius 85.9897
rwrist -5.10008
rhand -32.527 29.6017
rfingers 7.12502
rthumb -5.75752 -0.300072
lclavicle -2.98177e-016 1.80894e-014
lhumerus -40.8706 -18.9517 96.6476
lradius 99.5985
lwrist 25.1729
lhand -32.9515 10.5446
lfingers 7.12502
lthumb -6.16738 40.4348
rfemur -21.9486 7.17622 31.1688
rtibia 41.1199
rfoot -14.5091 -4.38356
rtoes 4.67604
lfemur -4.69706 16.3299 -6.09795
ltibia 112.23
lfoot 30.3568 -6.27725
ltoes 17.3161
29
root 0.561147 17.289 -15.8157 3.34146 -7.61367 -4.67166
lowerback 18.449 -2.09493 3.16388
upperback 2.98559 -1.94635 2.53722
thorax -7.12314 -0.996956 1.39999
lowerneck -5.51157 2.75962 -1.67939
upperneck -11.8567 3.47654 -2.85044
head -2.80766 1.86271 -0.655232
rclavicle 3.32964e-014 -1.59028e-014
rhumerus -22.8709 10.1469 -79.8303
rradius 87.1546
rwrist -4.55715
rhand -34.6494 31.1709
rfingers 7.12502
rthumb -7.8064 1.33497
lclavicle 3.32964e-014 -1.59028e-014
lhumerus -41.8446 -18.4319 96.7664
lradius 99.1341
lwrist 25.2385
lhand -32.7206 9.55133
lfingers 7.12502
lthumb -5.94451 39.4479
rfemur -20.3621 6.02613 30.8396
rtibia 41.6186
rfoot -15.6882 -4.76827
rtoes 3.18483
lfemur -8.19023 15.8857 -6.44108
ltibia 114.855
lfoot 28.1932 -6.87088
ltoes 14.5141
30
root 0.55372 17.2432 -15.3468 3.60093 -7.09192 -4.68519
lowerback 18.2821 -1.81687 3.44654
upperback 2.77783 -1.54789 2.24529
thorax -7.27238 -0.815405 0.828977
lowerneck -4.35939 2.4545 -0.560835
upperneck -12.4196 2.99683 -3.02968
head -3.18962 1.59735 -0.928147
rclavicle 2.90723e-015 -2.74323e-014
rhumerus -21.7431 9.20075 -80.1192
rradius 88.6676
rwrist -3.95184
rhand -35.8312 32.4
rfingers 7.12502
rthumb -8.94692 2.60968
lclavicle 2.90723e-015 -2.74323e-014
lhumerus -43.3098 -18.7232 96.9868
lradius 98.9421
lwrist 25.68
lhand -33.109 9.27084
lfingers 7.12502
lthumb -6.31939 39.1566
rfemur -18.9441 5.57597 30.8322
rtibia 42.0334
rfoot -16.4295 -5.27524
rtoes 4.65164
lfemur -11.7753 15.6458 -6.71524
ltibia 117.109
lfoot 26.2029 -7.36435
ltoes 9.85006
